<svg xmlns="http://www.w3.org/2000/svg" aria-hidden="true" style="position:absolute;width:0;height:0;overflow:hidden"><defs><symbol id="icon-client-1" viewBox="0 0 59 32"><path d="m24.348 8 2.438 2.308-4.524-.003v11.196h11.826V17.22l2.435 2.305V8H24.349zm9.632 8.949-6.911-6.543h6.911v6.543zm-2.146 2.914h-7.702v-7.53h.544v7.02h7.157v.51zm-5.883 3.128-.285.586-.285-.586h-.239l.415.781v.455h.216v-.455l.414-.781h-.238zm.357 1.236.1-.288h.479l.101.288h.224l-.468-1.236h-.193l-.467 1.236h.223zm.34-.974.179.513h-.358l.179-.513zm1.133.484a.325.325 0 0 0 .063.411c.073.065.172.097.294.097s.228-.033.316-.099l.07.082h.239l-.182-.215a.618.618 0 0 0 .107-.374h-.179a.49.49 0 0 1-.052.227l-.239-.282.084-.061c.059-.043.102-.086.128-.129s.039-.091.039-.143c0-.078-.029-.143-.087-.196s-.131-.08-.221-.08c-.1 0-.179.028-.238.085s-.088.133-.088.229c0 .04.009.081.028.123s.053.094.101.155a.726.726 0 0 0-.184.171zm.558.273a.32.32 0 0 1-.195.07c-.062 0-.111-.018-.148-.053s-.055-.082-.055-.139c0-.066.034-.125.102-.177l.026-.019.27.318zm-.222-.548c-.058-.072-.087-.132-.087-.179 0-.041.012-.076.036-.103s.056-.041.096-.041c.037 0 .068.012.093.035s.037.05.037.082a.153.153 0 0 1-.053.12l-.026.021-.094.065zm2.013.672a.445.445 0 0 0 .146-.309h-.214c-.011.088-.038.151-.081.189s-.106.057-.19.057c-.092 0-.162-.035-.211-.105s-.071-.172-.071-.306v-.11c.001-.132.027-.232.076-.3s.122-.103.216-.103c.08 0 .141.02.183.059s.068.103.078.192h.214c-.014-.135-.062-.24-.145-.314s-.193-.111-.329-.111a.465.465 0 0 0-.445.278.73.73 0 0 0-.062.308v.115c.002.114.023.214.064.3s.099.153.173.2a.49.49 0 0 0 .261.07.503.503 0 0 0 .339-.11zm1.262-.173a.76.76 0 0 0 .063-.319v-.069c-.001-.121-.022-.226-.065-.317a.477.477 0 0 0-.448-.282.482.482 0 0 0-.449.285.748.748 0 0 0-.064.319v.07c.001.118.022.223.065.313s.104.161.182.21a.497.497 0 0 0 .268.073c.101 0 .191-.024.268-.073s.138-.119.18-.211zm-.23-.699a.539.539 0 0 1 .078.315v.065c0 .139-.026.245-.077.318s-.124.109-.219.109c-.094 0-.168-.037-.221-.111s-.079-.179-.079-.315v-.071c.001-.133.028-.236.08-.308s.125-.11.218-.11c.095 0 .168.037.22.11z"/></symbol><symbol id="icon-client-2" viewBox="0 0 59 32"><path d="M28.561 7.629h-.047a8.01 8.01 0 0 0-.219-.008h-.158a8.433 8.433 0 0 0-.451.011 9.846 9.846 0 0 0-3.658.933l-.15.073v7.701l.352-.119c.309-.106.638-.202.978-.29a11.952 11.952 0 0 1 2.816-.374v1.012a7.468 7.468 0 0 0-.37.011h-.029c-.731.04-1.457.151-2.166.333-.899.225-1.766.563-2.581 1.006V8.041a10.334 10.334 0 0 1 2.707-1.101 10.367 10.367 0 0 1 2.552-.329h.149c.178.004.351.012.514.025.429.03.854.098 1.271.203v.996a8 8 0 0 0-1.232-.186l-.025-.002c-.086-.007-.172-.015-.252-.015zm1.753 1.018c.221.017.45.025.681.025a10.942 10.942 0 0 0 2.683-.344 11.049 11.049 0 0 0 2.58-1.007v9.701c-.847.493-1.758.864-2.708 1.101-.834.214-1.691.325-2.552.328a7.802 7.802 0 0 1-1.936-.228V8.459c.15.034.304.066.46.093.257.043.528.075.792.095zm4.937.076-.352.119c-.324.109-.65.206-.978.293-.956.246-1.938.371-2.924.375-.23 0-.441-.006-.645-.019l-.281-.019v7.922l.241.021c.224.019.454.029.686.029a9.326 9.326 0 0 0 2.303-.298 9.582 9.582 0 0 0 1.799-.647l.151-.073V8.722zM23.561 21.291a.53.53 0 0 0-.392-.158.585.585 0 0 0-.226.042.519.519 0 0 0-.289.293.582.582 0 0 0-.041.218v1.32a.63.63 0 0 0 .052.271.482.482 0 0 0 .313.271c.064.018.13.027.197.027a.55.55 0 0 0 .546-.555v-.148h-.345v.118a.319.319 0 0 1-.02.118.206.206 0 0 1-.05.074.217.217 0 0 1-.072.038.222.222 0 0 1-.072.012c-.031.004-.062-.001-.09-.014s-.053-.032-.071-.057a.315.315 0 0 1-.046-.177v-1.23a.419.419 0 0 1 .042-.197.174.174 0 0 1 .169-.079.182.182 0 0 1 .154.074.276.276 0 0 1 .057.177v.114h.341v-.134a.63.63 0 0 0-.042-.231.552.552 0 0 0-.115-.186zM25.61 21.276a.605.605 0 0 0-.78 0 .537.537 0 0 0-.134.185.61.61 0 0 0-.05.256v1.266a.623.623 0 0 0 .05.259.516.516 0 0 0 .134.177.534.534 0 0 0 .182.111.605.605 0 0 0 .412 0c.069-.025.132-.063.187-.111s.099-.11.13-.177a.608.608 0 0 0 .05-.259v-1.266a.574.574 0 0 0-.18-.441zm-.161 1.706c.003.034-.002.068-.014.099s-.031.06-.055.084a.254.254 0 0 1-.324 0 .227.227 0 0 1-.069-.183v-1.266c-.003-.034.002-.068.014-.099s.031-.06.055-.084a.254.254 0 0 1 .324 0 .227.227 0 0 1 .069.183v1.266zM28.302 23.548v-2.396h-.332l-.436 1.268h-.006l-.439-1.268h-.328v2.396h.342V22.09h.006l.335 1.03h.171l.338-1.03h.006v1.458h.342zM30.246 21.32a.478.478 0 0 0-.194-.131.746.746 0 0 0-.248-.037h-.509v2.396h.341v-.936h.176a.629.629 0 0 0 .308-.065.49.49 0 0 0 .187-.183.582.582 0 0 0 .078-.209c.013-.09.02-.181.018-.272a1.403 1.403 0 0 0-.033-.342.506.506 0 0 0-.126-.22zm-.176.73a.29.29 0 0 1-.032.125.193.193 0 0 1-.088.084.345.345 0 0 1-.161.03h-.156v-.815h.176a.327.327 0 0 1 .154.03c.035.02.063.051.08.088a.34.34 0 0 1 .03.134v.159c0 .056.003.113 0 .165h-.003zM31.864 21.152h-.28l-.528 2.396h.341l.1-.515h.465l.1.515h.341l-.541-2.396zm-.315 1.554.168-.869h.006l.167.869h-.341zM34.069 22.595h-.006l-.516-1.443h-.328v2.396h.341v-1.441h.007l.522 1.441h.321v-2.396h-.341v1.443zM36.156 21.152l-.275.953h-.007l-.274-.953h-.362l.469 1.383v1.013h.342v-1.013l.469-1.383h-.361zM22.609 24.224h.165v.462h.112v-.462h.164v-.095h-.44v.095zM23.992 24.13l-.216.556h.119l.046-.126h.222l.047.126h.121l-.221-.556h-.119zm-.018.336.076-.206.076.206h-.151zM25.359 24.481h.128v.072a.213.213 0 0 1-.132.047.14.14 0 0 1-.118-.053.232.232 0 0 1-.041-.145c0-.124.054-.186.16-.186a.118.118 0 0 1 .126.089l.11-.021c-.024-.109-.102-.164-.236-.164a.277.277 0 0 0-.194.072.278.278 0 0 0-.081.214.305.305 0 0 0 .071.209.265.265 0 0 0 .211.081.337.337 0 0 0 .236-.088v-.219h-.241v.094zM26.756 24.13h-.113v.556h.39v-.095h-.277v-.462zM27.937 24.13h-.113v.556h.113v-.556zM29.091 24.501l-.228-.372h-.109v.556h.105v-.363l.224.363h.112v-.556h-.103v.372zM30.135 24.441h.277v-.095h-.277v-.122h.298v-.095h-.411v.556h.422v-.095h-.31v-.15zM32.665 24.349h-.219v-.219h-.112v.556h.112v-.243h.219v.243h.112v-.556h-.112v.219zM33.715 24.441h.278v-.095h-.278v-.122h.299v-.095h-.411v.556h.421v-.095h-.31v-.15zM35.138 24.441c.097-.015.146-.066.146-.155a.129.129 0 0 0-.054-.123.315.315 0 0 0-.163-.033h-.236v.556h.112v-.233h.022a.167.167 0 0 1 .07.012.12.12 0 0 1 .04.041l.121.177h.134l-.068-.109a.395.395 0 0 0-.123-.134zm-.112-.077h-.082v-.14h.088a.288.288 0 0 1 .113.013c.008.007.015.016.019.026s.006.021.006.032a.068.068 0 0 1-.029.055.313.313 0 0 1-.114.013zM36.212 24.441h.277v-.095h-.277v-.122h.299v-.095h-.412v.556h.422v-.095h-.31v-.15z"/></symbol><symbol id="icon-client-3" viewBox="0 0 59 32"><path d="M23.793 22.644c.006 0 .011.001.016.003l.013.008.076.073a.627.627 0 0 1-.213.138.815.815 0 0 1-.302.049.808.808 0 0 1-.285-.046.579.579 0 0 1-.352-.331.656.656 0 0 1-.048-.258.596.596 0 0 1 .199-.46.687.687 0 0 1 .228-.131.903.903 0 0 1 .293-.046.778.778 0 0 1 .272.042.745.745 0 0 1 .204.116l-.064.077a.073.073 0 0 1-.016.014.053.053 0 0 1-.053-.002l-.034-.021-.047-.026c-.02-.01-.042-.018-.064-.026a.634.634 0 0 0-.41.006.45.45 0 0 0-.272.252.518.518 0 0 0-.039.204.534.534 0 0 0 .039.208.454.454 0 0 0 .105.154.426.426 0 0 0 .157.096.559.559 0 0 0 .195.033.753.753 0 0 0 .116-.007.466.466 0 0 0 .25-.106.059.059 0 0 1 .036-.013zM25.984 22.28a.633.633 0 0 1-.051.256c-.031.074-.08.142-.143.199s-.14.101-.224.131a.918.918 0 0 1-.577 0 .664.664 0 0 1-.223-.131.587.587 0 0 1-.144-.201.67.67 0 0 1 0-.513.6.6 0 0 1 .144-.202.662.662 0 0 1 .223-.126.904.904 0 0 1 .577 0c.084.03.16.074.224.131s.111.125.143.199c.035.082.052.17.051.258zm-.199 0a.54.54 0 0 0-.036-.206.42.42 0 0 0-.262-.251.667.667 0 0 0-.419 0 .455.455 0 0 0-.16.097.411.411 0 0 0-.102.154.607.607 0 0 0 0 .412.411.411 0 0 0 .262.25.682.682 0 0 0 .419 0 .439.439 0 0 0 .16-.096.432.432 0 0 0 .102-.154.54.54 0 0 0 .036-.206zM27.479 22.496l.02.046.022-.046c.008-.015.015-.031.025-.045l.485-.765c.009-.013.018-.021.027-.024a.133.133 0 0 1 .04-.004h.143v1.245h-.17V21.906l-.487.776c-.006.012-.016.021-.029.028s-.027.01-.042.01h-.027c-.015 0-.029-.003-.042-.01s-.022-.017-.028-.028l-.502-.781v.999h-.164v-1.242h.143a.136.136 0 0 1 .04.004.058.058 0 0 1 .027.024l.495.766c.01.014.018.029.025.044zM29.302 22.434v.466h-.19v-1.243h.423a.934.934 0 0 1 .236.027.49.49 0 0 1 .167.077.32.32 0 0 1 .095.122.383.383 0 0 1 .032.159.351.351 0 0 1-.137.283.479.479 0 0 1-.168.082.8.8 0 0 1-.229.029l-.23-.003zm0-.134h.23a.52.52 0 0 0 .147-.019.313.313 0 0 0 .106-.054.24.24 0 0 0 .087-.187c.002-.035-.004-.069-.019-.101s-.037-.061-.066-.085a.408.408 0 0 0-.255-.067h-.23v.512zM31.851 22.902h-.15a.076.076 0 0 1-.042-.012.086.086 0 0 1-.025-.029l-.129-.301h-.648l-.134.301a.07.07 0 0 1-.067.04h-.15l.569-1.245h.197l.577 1.245zm-.938-.463h.535l-.226-.507a.963.963 0 0 1-.043-.117l-.022.065a.586.586 0 0 1-.021.053l-.224.506zM32.671 21.662a.076.076 0 0 1 .028.022l.83.939v-.967h.17v1.245h-.095c-.014 0-.027-.002-.039-.007s-.022-.014-.03-.023l-.829-.938v.968h-.17v-1.245h.101c.012 0 .023.002.034.006zM35.097 22.407v.494h-.19v-.494l-.525-.75h.17a.065.065 0 0 1 .041.011c.01.008.019.017.026.028l.328.484c.013.021.025.04.034.058s.017.035.024.053l.024-.054a.397.397 0 0 1 .032-.057l.323-.487a.103.103 0 0 1 .025-.026.059.059 0 0 1 .041-.012h.171l-.525.753zM27.385 19.567c.082.009.166.017.25.023 1.28-.497 2.362-1.311 3.112-2.34s1.134-2.227 1.105-3.445l-1.41-1.225c.287 1.296.153 2.637-.387 3.871s-1.464 2.313-2.67 3.117z"/><path d="m26.881 19.51.038.007c1.288-.801 2.271-1.919 2.82-3.209s.64-2.695.261-4.031l-2.009-1.745c.812 1.434 1.139 3.04.943 4.629s-.908 3.098-2.053 4.35zM33.693 15.244c-.341 1.338-1.17 2.545-2.363 3.441a7.477 7.477 0 0 1-1.123.7c.972-.248 1.865-.687 2.61-1.282s1.324-1.332 1.69-2.152l-.815-.707z"/><path d="m33.374 15.047-1.16-1.008c-.022 1.149-.398 2.272-1.089 3.252s-1.671 1.781-2.838 2.321h.006c.26 0 .52-.014.779-.04 1.091-.387 2.055-1.003 2.806-1.792s1.265-1.728 1.497-2.732zM27.049 9.795l-1.384-1.204c-1.237.415-2.301 1.145-3.052 2.095s-1.156 2.074-1.159 3.226c.005 1.273.498 2.508 1.401 3.511s2.166 1.714 3.588 2.022c1.269-1.343 2.012-3.003 2.121-4.739s-.422-3.456-1.515-4.911zM36.57 14.862c-.005-1.51-.698-2.958-1.927-4.026s-2.895-1.67-4.633-1.674a7.353 7.353 0 0 0-2.349.38l8.471 7.36c.29-.651.439-1.342.438-2.04z"/></symbol><symbol id="icon-client-4" viewBox="0 0 59 32"><path d="M19.529 12.905h-.001c-.834 0-1.51.601-1.51 1.342v.001c0 .741.676 1.342 1.51 1.342h.001c.834 0 1.51-.601 1.51-1.342v-.001c0-.741-.676-1.342-1.51-1.342zM30.677 12.476c-.002-1.03-.464-2.016-1.283-2.744s-1.929-1.138-3.088-1.141c-1.159.002-2.27.412-3.089 1.14s-1.281 1.715-1.283 2.745v5.678s8.742-.865 8.743-5.677v-.001zM14.957 20.017c.002.716.323 1.403.893 1.91s1.342.792 2.148.794c.806-.002 1.578-.288 2.148-.794s.891-1.193.893-1.909v-3.951s-6.083.603-6.083 3.95zm3.041.708c-.158 0-.311-.041-.442-.119s-.233-.188-.293-.318c-.06-.129-.076-.272-.045-.409s.107-.263.218-.362c.111-.099.253-.166.408-.194s.315-.013.46.04c.146.054.27.144.357.261s.134.253.134.393c0 .093-.02.186-.06.272s-.098.165-.172.23c-.074.066-.162.118-.259.154s-.201.054-.305.054v-.003zM24.145 20.335h-.587v.606h-.306v-1.484h.966v.248h-.66v.383h.587v.247zm1.47-.102c0 .146-.026.274-.077.384a.583.583 0 0 1-.552.345.589.589 0 0 1-.553-.342.876.876 0 0 1-.081-.379v-.073c0-.146.026-.274.078-.385a.583.583 0 0 1 .553-.346c.123 0 .233.03.329.09.096.059.171.144.223.256s.079.239.079.384v.066zm-.31-.067c0-.156-.028-.274-.084-.355s-.135-.121-.238-.121c-.103 0-.182.04-.237.12s-.084.196-.085.351v.072c0 .151.028.269.084.353s.136.125.241.125c.103 0 .181-.04.236-.12s.083-.198.084-.353v-.072zm1.301.386c0-.058-.02-.102-.061-.133s-.114-.064-.22-.098a1.662 1.662 0 0 1-.252-.102c-.168-.091-.253-.214-.253-.368 0-.08.022-.151.067-.214s.11-.112.195-.148c.085-.035.18-.053.285-.053s.2.019.283.058c.083.038.147.092.193.162s.069.149.069.238h-.306c0-.068-.021-.121-.064-.158s-.103-.057-.18-.057c-.075 0-.133.016-.174.048s-.062.073-.062.124c0 .048.024.089.072.121s.121.063.215.092c.174.052.301.117.38.195s.119.174.119.289c0 .128-.049.229-.146.303s-.228.109-.392.109c-.114 0-.218-.021-.312-.062s-.165-.099-.215-.172a.442.442 0 0 1-.073-.253h.307c0 .164.098.246.293.246.073 0 .129-.015.17-.044s.061-.071.061-.124zm1.632-.847h-.454v1.236h-.306v-1.236h-.448v-.248h1.209v.248zm1.068.594h-.587v.397h.689v.246h-.995v-1.484h.993v.248h-.687v.354h.587v.239zm.83.099h-.244v.543h-.306v-1.484h.551c.175 0 .31.039.406.117s.143.189.143.331c0 .101-.022.186-.066.254s-.11.121-.199.161l.321.606v.014h-.328l-.278-.543zm-.243-.247h.247c.077 0 .136-.019.178-.058s.063-.093.063-.162c0-.07-.02-.125-.06-.165s-.1-.06-.182-.06h-.246v.445zm1.852.268v.523h-.306v-1.484h.579c.111 0 .209.02.294.061a.456.456 0 0 1 .264.43c0 .145-.05.26-.15.344s-.237.125-.413.125h-.268zm0-.248h.273c.081 0 .142-.019.184-.057s.064-.092.064-.163c0-.073-.021-.131-.064-.176s-.102-.068-.177-.069h-.28v.466zm1.934.128h-.587v.397h.689v.246h-.995v-1.484h.993v.248h-.687v.354h.587v.239zm1.419-.594h-.455v1.236h-.306v-1.236h-.448v-.248h1.209v.248zm1.068.594h-.587v.397h.689v.246h-.994v-1.484h.992v.248h-.687v.354h.587v.239zm.83.099h-.243v.543h-.306v-1.484h.551c.175 0 .31.039.406.117s.143.189.143.331c0 .101-.022.186-.066.254s-.11.121-.199.161l.321.606v.014h-.328l-.278-.543zm-.243-.247H37c.077 0 .136-.019.178-.058s.063-.093.063-.162c0-.07-.02-.125-.06-.165s-.1-.06-.182-.06h-.246v.445zm1.796.401c0-.058-.021-.102-.061-.133s-.114-.064-.22-.098a1.602 1.602 0 0 1-.251-.102c-.169-.091-.253-.214-.253-.368 0-.08.022-.151.067-.214s.111-.112.195-.148a.742.742 0 0 1 .285-.053c.106 0 .2.019.283.058s.147.092.192.162c.046.07.07.149.07.238h-.306c0-.068-.022-.121-.064-.158s-.103-.057-.18-.057c-.075 0-.133.016-.174.048s-.062.073-.062.124c0 .048.024.089.072.121s.121.063.215.092c.174.052.301.117.38.195s.119.174.119.289c0 .128-.049.229-.146.303s-.228.109-.392.109c-.114 0-.218-.021-.312-.062s-.165-.099-.215-.172a.442.442 0 0 1-.073-.253h.307c0 .164.098.246.294.246.073 0 .129-.015.17-.044s.061-.071.061-.124z"/></symbol><symbol id="icon-client-5" viewBox="0 0 59 32"><path d="M20.437 21.125c.085.096.13.216.128.34.004.081-.011.161-.045.235s-.086.141-.152.194a.92.92 0 0 1-.575.157h-1.01v-2.154h.989a.904.904 0 0 1 .548.143c.064.049.114.111.148.181s.048.146.044.222a.468.468 0 0 1-.115.329.542.542 0 0 1-.301.168.586.586 0 0 1 .341.184zm-1.184-.325h.423a.43.43 0 0 0 .269-.072.251.251 0 0 0 .091-.211c.003-.039-.003-.078-.019-.114s-.04-.069-.071-.096a.44.44 0 0 0-.277-.073h-.416v.565zm.733.826c.034-.027.061-.061.078-.099s.025-.079.022-.12c.003-.042-.005-.083-.023-.121s-.045-.072-.079-.1a.465.465 0 0 0-.287-.078h-.444v.592h.449a.478.478 0 0 0 .284-.075zM22.459 22.051l-.55-.842h-.207v.842h-.473v-2.154h.896a.942.942 0 0 1 .624.183c.125.117.201.271.213.434s-.04.325-.146.457a.753.753 0 0 1-.427.219l.586.861h-.515zm-.757-1.135h.387c.269 0 .403-.109.403-.326a.304.304 0 0 0-.099-.242.443.443 0 0 0-.305-.087h-.392l.005.655zM25.047 21.618h-.943l-.167.433h-.496l.866-2.129h.537l.863 2.129h-.496l-.163-.433zm-.126-.327-.345-.909-.345.909h.689zM28.286 22.051h-.47l-1.054-1.464v1.464h-.469v-2.154h.469l1.054 1.473v-1.473h.47v2.154zM30.968 21.536a.976.976 0 0 1-.425.38 1.496 1.496 0 0 1-.661.136h-.837v-2.154h.837c.229-.005.455.04.661.133.18.083.328.214.425.376a1.164 1.164 0 0 1 0 1.13zm-.538-.052c.134-.143.208-.325.208-.514s-.074-.371-.208-.514a.865.865 0 0 0-.588-.183h-.326v1.394h.326a.864.864 0 0 0 .588-.183zM25.341 7.919s6.066 2.097 5.937 5.131v5.132s-6.061-2.098-5.935-5.132l-.002-5.131zM36.682 16.98a8.793 8.793 0 0 1 3.854-1.3v-1.607c-1.594.562-2.946 1.582-3.854 2.907z"/><path d="M35.994 17.464c.937-1.729 2.563-3.063 4.542-3.727V9.108s-8.638 2.987-8.456 7.308v7.306s.385-.134.99-.384c0-.234 0-.469.028-.706.179-2.006 1.22-3.865 2.896-5.168z"/><path d="M35.172 20.178a6.919 6.919 0 0 1 .302-1.496c-1.043 1.125-1.675 2.522-1.806 3.993a5.81 5.81 0 0 0-.023.421 25.701 25.701 0 0 0 1.661-.802 6.936 6.936 0 0 1-.134-2.116zM35.515 20.205a6.629 6.629 0 0 0 .107 1.916c2.36-1.293 5.012-3.291 4.91-5.705v-.21c-1.686.173-3.264.848-4.49 1.921a6.711 6.711 0 0 0-.526 2.079z"/></symbol><symbol id="icon-client-6" viewBox="0 0 59 32"><path d="M29.713 15.098a1.024 1.024 0 0 1-.21-.692v-1.003c0-.307.07-.541.209-.701s.379-.239.718-.239c.319 0 .546.068.679.204a.833.833 0 0 1 .201.6v.236h-.571v-.239a1.153 1.153 0 0 0-.017-.234.224.224 0 0 0-.082-.139.33.33 0 0 0-.207-.054.346.346 0 0 0-.217.057.27.27 0 0 0-.095.153 1.15 1.15 0 0 0-.022.248v1.217a.624.624 0 0 0 .073.342c.028.036.068.065.114.083s.097.025.147.019a.314.314 0 0 0 .202-.055.245.245 0 0 0 .085-.148c.013-.081.019-.162.018-.244v-.247h.571v.225a.916.916 0 0 1-.197.63c-.131.149-.355.223-.683.223s-.577-.08-.717-.245zM32.089 15.109c-.144-.156-.216-.384-.216-.685v-1.055c0-.298.072-.523.216-.676s.385-.229.723-.229c.336 0 .575.076.72.229s.217.379.217.676v1.055c0 .298-.073.526-.22.684s-.385.236-.717.236c-.332 0-.578-.08-.723-.235zm.989-.253a.592.592 0 0 0 .069-.312v-1.292a.579.579 0 0 0-.067-.306c-.029-.037-.069-.066-.117-.084s-.099-.024-.151-.018c-.051-.006-.103 0-.151.018s-.088.047-.117.084a.569.569 0 0 0-.069.306v1.298a.572.572 0 0 0 .069.312c.033.033.074.059.12.077a.404.404 0 0 0 .414-.077v-.006zM34.436 12.495h.614l.462 1.946.473-1.946h.598l.061 2.809h-.442l-.047-1.952-.456 1.952h-.354l-.473-1.96-.044 1.96h-.447l.056-2.809zM37.332 12.495h.957c.551 0 .827.266.827.798 0 .509-.29.764-.871.763h-.326v1.249h-.591l.003-2.809zm.818 1.201a.464.464 0 0 0 .325-.089.451.451 0 0 0 .085-.317.88.88 0 0 0-.029-.255c-.008-.028-.023-.054-.043-.077s-.046-.042-.074-.057a.62.62 0 0 0-.264-.045h-.229v.839h.229zM39.968 12.495h.635l.651 2.809h-.551l-.129-.648h-.566l-.133.648h-.559l.651-2.809zm.543 1.836-.221-1.179-.221 1.179h.442zM41.78 12.495h.414l.792 1.603v-1.603h.49v2.809h-.393l-.797-1.673v1.673h-.507l.001-2.809zM44.624 14.233l-.658-1.734h.554l.402 1.114.377-1.114h.543l-.65 1.734v1.071h-.567v-1.071zM30.625 16.533v.147h-.482v1.142h-.202V16.68h-.484v-.147h1.169zM32.137 17.821h-.156a.068.068 0 0 1-.044-.012.063.063 0 0 1-.026-.03l-.139-.306h-.669l-.139.306a.084.084 0 0 1-.021.035.067.067 0 0 1-.044.012h-.156l.591-1.288h.206l.598 1.283zm-.979-.478h.558l-.236-.524a1.097 1.097 0 0 1-.044-.121l-.022.068-.021.054-.234.523zM33.155 17.695a.752.752 0 0 0 .37-.07v-.29h-.236c-.006 0-.012 0-.017-.002s-.011-.004-.015-.008c-.004-.003-.007-.006-.009-.011s-.003-.008-.003-.013v-.099h.458v.494a.822.822 0 0 1-.249.105 1.206 1.206 0 0 1-.32.035.882.882 0 0 1-.298-.048.734.734 0 0 1-.236-.135.609.609 0 0 1-.206-.471.6.6 0 0 1 .205-.473.721.721 0 0 1 .236-.134.995.995 0 0 1 .317-.048c.055 0 .11.004.164.011a.85.85 0 0 1 .259.084.961.961 0 0 1 .103.067l-.057.08a.055.055 0 0 1-.046.025.079.079 0 0 1-.037-.01.48.48 0 0 1-.058-.031.558.558 0 0 0-.188-.064.842.842 0 0 0-.378.025.455.455 0 0 0-.284.262.601.601 0 0 0 0 .43.499.499 0 0 0 .291.264.683.683 0 0 0 .234.026zM35.039 17.674h.645v.147h-.842v-1.288h.202l-.005 1.142zM36.355 17.821h-.202v-1.288h.202v1.288zM37.106 16.539a.104.104 0 0 1 .031.023l.864.971a.353.353 0 0 1 0-.046V16.527h.176v1.294h-.102a.095.095 0 0 1-.044-.007.128.128 0 0 1-.032-.024l-.863-.97v1.002h-.169v-1.289h.105c.011 0 .023.002.033.006zM39.665 16.533v.142h-.716v.425h.58v.137h-.58v.44h.716v.142h-.924v-1.285h.924zM18.491 8.576l8.972 2.199v7.707l-8.972-2.198V8.576zm-.575-.657v8.739l10.122 2.482v-8.738L17.916 7.919z"/><path d="m23.34 23.197-10.123-2.484v-8.739l10.123 2.483v8.74z"/><path d="m18.083 8.477 8.855 2.172-3.766 3.252-8.856-2.173 3.767-3.251zm-.167-.558-4.698 4.056 10.123 2.483 4.697-4.056-10.122-2.483zM23.91 22.706l4.127-3.564-4.127-1.013v4.577z"/></symbol><symbol id="icon-envelope" viewBox="0 0 43 32"><path d="M38.667 0H4C1.794 0 0 1.794 0 4v24c0 2.206 1.794 4 4 4h34.667c2.206 0 4-1.794 4-4V4c0-2.206-1.794-4-4-4zm0 2.667c.181 0 .353.038.511.103L21.334 18.236 3.49 2.77a1.32 1.32 0 0 1 .511-.103h34.667zm0 26.666H4A1.334 1.334 0 0 1 2.667 28V5.587L20.46 21.008a1.335 1.335 0 0 0 1.748 0L40.001 5.587V28c0 .736-.598 1.333-1.333 1.333z"/></symbol><symbol id="icon-facebook" viewBox="0 0 32 32"><path d="M21.329 5.313h2.921V.225C23.746.156 22.013 0 19.994 0c-4.212 0-7.097 2.649-7.097 7.519V12H8.249v5.688h4.648V32h5.699V17.689h4.46l.708-5.688h-5.169V8.082c.001-1.644.444-2.769 2.735-2.769z"/></symbol><symbol id="icon-group-1" viewBox="0 0 72 32"><path fill="#f5f4fa" d="M1.067 0h69.867c.589 0 1.067.478 1.067 1.067v29.867c0 .589-.478 1.067-1.067 1.067H1.067A1.067 1.067 0 0 1 0 30.934V1.067C0 .478.478 0 1.067 0z" style="fill:var(--color2, #f5f4fa)"/><path fill="#212121" d="m44.618 19.557-4.925-4.961.547-2.692c.141.055.291.084.442.085h.004a1.26 1.26 0 1 0-1.172-.837l-2.893.353-4.719-4.744a.309.309 0 0 0-.438-.002l-.882.877a.31.31 0 0 0 0 .44l.475.482a8.716 8.716 0 0 0 1.47 10.303.302.302 0 0 0 .085.057c-.02.105-.03.212-.03.319v3.609h-3.733a1.558 1.558 0 0 0-1.556 1.556v.622a.31.31 0 0 0 .311.311h14.311a.31.31 0 0 0 .311-.311v-.622a1.558 1.558 0 0 0-1.555-1.556h-3.733v-1.599a8.785 8.785 0 0 0 1.778.187 8.673 8.673 0 0 0 4.107-1.04l.477.48a.309.309 0 0 0 .438.002l.882-.877a.31.31 0 0 0 0-.44zm-4.371-9.254a.623.623 0 1 1 .439 1.063h-.002a.623.623 0 0 1-.436-1.063h-.001zm-.733 2.044-.349 1.718-.686-.69 1.035-1.029zm-.353-.526-1.12 1.113-.866-.871 1.986-.242zm1.508 11.646c.515 0 .933.418.933.933v.311H27.913V24.4c0-.515.418-.933.933-.933h11.822zm-4.355-1.245v.622h-3.111v-.622h3.111zm-3.112-.622v-2.364c0-.755.698-1.369 1.555-1.369s1.556.614 1.556 1.369V21.6h-3.111zm3.734-.989v-1.375c0-1.098-.977-1.991-2.178-1.991a2.217 2.217 0 0 0-1.914 1.042 8.09 8.09 0 0 1-1.329-9.268l10.851 10.913a8.068 8.068 0 0 1-5.43.679zm6.585-.399L31.238 7.857l.44-.439 4.629 4.655c.002 0 .003.004.006.006l7.65 7.695-.441.439z" style="fill:var(--color3, #212121)"/><path fill="#2196f3" d="M34.761 18.489h-.003a.934.934 0 0 0-.003 1.867h.003a.934.934 0 0 0 .003-1.867zm.217 1.154a.31.31 0 1 1-.438-.441.314.314 0 0 1 .218-.091.312.312 0 0 1 .218.532h.003z" style="fill:var(--color4, #2196f3)"/></symbol><symbol id="icon-group-2" viewBox="0 0 72 32"><path fill="#f5f4fa" d="M1.067 0h69.867c.589 0 1.067.478 1.067 1.067v29.867c0 .589-.478 1.067-1.067 1.067H1.067A1.067 1.067 0 0 1 0 30.934V1.067C0 .478.478 0 1.067 0z" style="fill:var(--color2, #f5f4fa)"/><path fill="#212121" d="M44.923 15.592c-.001-4.931-3.999-8.927-8.93-8.926a8.928 8.928 0 0 0-2.714 17.433.394.394 0 0 0 .309-.038.37.37 0 0 0 .165-.208l2.255-7.146a1.116 1.116 0 1 0-.49-2.12l-2.978-2.979a.372.372 0 0 0-.526.526l2.977 2.98a1.095 1.095 0 0 0 .313 1.347l-2.148 6.809A8.192 8.192 0 1 1 38.82 7.897a8.192 8.192 0 0 1 .502 15.169l-.232-1.093a.372.372 0 0 0-.612-.201L36.24 23.77a.372.372 0 0 0 .134.632l2.858.912a.373.373 0 0 0 .478-.431l-.228-1.073a8.9 8.9 0 0 0 5.442-8.219zm-8.928-.372a.373.373 0 1 1-.001.745.373.373 0 0 1 .001-.745zm1.226 8.671 1.274-1.136.352 1.657-1.626-.52z" style="fill:var(--color3, #212121)"/><path fill="#2196f3" d="M35.623 8.525v.744a.371.371 0 1 0 .744 0v-.744a.373.373 0 0 0-.744 0zM28.928 15.22a.372.372 0 1 0 0 .744h.744a.372.372 0 1 0 0-.744h-.744zM43.063 15.964a.372.372 0 1 0 0-.744h-.744a.373.373 0 0 0 0 .744h.744z" style="fill:var(--color4, #2196f3)"/></symbol><symbol id="icon-group-3" viewBox="0 0 72 32"><path fill="#f5f4fa" d="M1.067 0h69.867c.589 0 1.067.478 1.067 1.067v29.867c0 .589-.478 1.067-1.067 1.067H1.067A1.067 1.067 0 0 1 0 30.934V1.067C0 .478.478 0 1.067 0z" style="fill:var(--color2, #f5f4fa)"/><path fill="#2196f3" d="M35.373 15.396h.622v2.799h-.622v-2.799zM37.861 16.64h.622v1.555h-.622V16.64zM32.886 17.573h.622v.622h-.622v-.622zM31.02 17.262h.622v.933h-.622v-.933z" style="fill:var(--color4, #2196f3)"/><path fill="#212121" d="M27.599 23.17h14.926a.933.933 0 0 0 .933-.933v-1.244a.933.933 0 0 0-.933-.933h-.311v-7.754l1.766-1.673a.938.938 0 1 0-.437-.445l-1.331 1.262v-.717a.933.933 0 0 0-.933-.933H28.841a.933.933 0 0 0-.933.933v9.328h-.311a.933.933 0 0 0-.933.933v1.244c0 .515.418.933.933.933zM44.391 9.488a.31.31 0 1 1 0 .621.31.31 0 0 1 0-.621zm-15.859 1.244a.31.31 0 0 1 .311-.311h12.438a.31.31 0 0 1 .311.311v1.306l-.622.591v-1.275a.31.31 0 0 0-.311-.311H29.465a.31.31 0 0 0-.311.311v7.774a.31.31 0 0 0 .311.311h11.194a.311.311 0 0 0 .311-.311v-5.643l.622-.589v7.165h-13.06v-9.328zm2.799 4.042a.933.933 0 1 0 .646 1.603l1.081.542a.31.31 0 0 0 .371-.072l2.298-2.585 2.259 1.692a.31.31 0 0 0 .4-.023l1.963-1.859v4.743H29.777v-7.152h10.572v1.552l-2.2 2.083-2.278-1.707a.311.311 0 0 0-.419.042l-2.329 2.621-.871-.435c.006-.037.01-.075.012-.113a.933.933 0 0 0-.933-.933zm.311.933a.31.31 0 1 1-.621 0 .31.31 0 0 1 .621 0zm1.865 4.975h3.11v.311a.31.31 0 0 1-.311.311h-2.488a.31.31 0 0 1-.311-.311v-.311zm-6.218.311a.31.31 0 0 1 .311-.311h5.286v.311c0 .515.418.933.933.933h2.488a.933.933 0 0 0 .933-.933v-.311h5.286a.31.31 0 0 1 .311.311v1.244a.31.31 0 0 1-.311.311H27.6a.31.31 0 0 1-.311-.311v-1.244z" style="fill:var(--color3, #212121)"/></symbol><symbol id="icon-group-4" viewBox="0 0 72 32"><path fill="#f5f4fa" d="M1.067 0h69.867c.589 0 1.067.478 1.067 1.067v29.867c0 .589-.478 1.067-1.067 1.067H1.067A1.067 1.067 0 0 1 0 30.934V1.067C0 .478.478 0 1.067 0z" style="fill:var(--color2, #f5f4fa)"/><path fill="#2196f3" d="M45.318 9.306a.315.315 0 0 0-.251-.212l-1.114-.162-.499-1.01c-.105-.213-.453-.213-.558 0l-.499 1.01-1.115.162a.311.311 0 0 0-.172.531l.807.786-.19 1.11a.311.311 0 0 0 .451.328l.997-.524.997.524a.311.311 0 0 0 .451-.327l-.19-1.11.807-.786a.312.312 0 0 0 .079-.319zm-1.436.774a.31.31 0 0 0-.089.275l.111.65-.583-.307a.308.308 0 0 0-.29 0l-.583.307.111-.65a.309.309 0 0 0-.089-.275l-.473-.46.653-.095a.31.31 0 0 0 .234-.17l.292-.591.292.591a.31.31 0 0 0 .234.17l.653.095-.472.46zM41.911 18.638h-.622v.622h.622v-.622zM41.911 19.882h-.622v.622h.622v-.622zM42.533 19.26h-.622v.622h.622v-.622zM41.289 19.26h-.622v.622h.622v-.622zM39.733 22.06h-.622v.622h.622v-.622zM39.733 23.305h-.622v.622h.622v-.622zM40.356 22.682h-.622v.622h.622v-.622zM39.111 22.682h-.622v.622h.622v-.622zM36 20.816h-.622v.622H36v-.622zM36 22.06h-.622v.622H36v-.622zM36.622 21.438H36v.622h.622v-.622zM35.378 21.438h-.622v.622h.622v-.622zM30.089 10.238h-.622v.622h.622v-.622zM30.089 11.482h-.622v.622h.622v-.622zM30.711 10.86h-.622v.622h.622v-.622zM29.467 10.86h-.622v.622h.622v-.622z" style="fill:var(--color4, #2196f3)"/><path fill="#212121" d="M41.084 14.926a1.036 1.036 0 0 0-.693-.411 1.038 1.038 0 0 0-.782.205l-.73.56-1.107.827-.792-.316a4.046 4.046 0 0 0 2.4-3.687c0-2.23-1.822-4.044-4.061-4.044s-4.061 1.814-4.061 4.044c0 .808.242 1.56.653 2.192l-1.612-.014h-.003c-.005 0-.009.002-.014.003a.289.289 0 0 0-.091.018c-.007.003-.015.004-.022.008l-.011.004-1.886.931h-.001l-1.104.531a1.039 1.039 0 0 0 .545 1.927c.169 0 .336-.041.49-.123l.81-.431 1.321-.682.791-.005-3.174 3.159-.001.001-.781.778a.967.967 0 0 0 0 1.375.98.98 0 0 0 1.377 0l.767-.764 1.015-.758.525.523-1.027 1.023-.001.001-.781.778a.967.967 0 0 0 0 1.375.979.979 0 0 0 1.377 0l2.031-2.022.001-.001.589-.583-.002-.002c.004-.004.009-.005.013-.009l3.013-3.301 2.025.288a.312.312 0 0 0 .153-.019l.029-.014c.011-.006.023-.009.034-.016l1.874-1.244c.007-.005.011-.012.017-.017.007-.006.017-.008.024-.015l.742-.695c.386-.362.439-.954.124-1.378zm-13.175 2.107c-.101.054-.216.065-.326.03a.417.417 0 0 1-.124-.735l.766-.369.185.539.077.226-.579.308zm2.04-1.067-.903.467-.149-.436-.107-.313 1.182-.584-.023.866zm8.808-3.862c0 .536-.128 1.041-.349 1.493l-2.439-1.108a1.086 1.086 0 0 0-.46-.81l.854-2.835a3.429 3.429 0 0 1 2.394 3.26zm-6.876 0a3.434 3.434 0 0 1 3.873-3.392l-.835 2.773-.033-.003c-.602 0-1.093.488-1.093 1.089s.49 1.089 1.093 1.089c.405 0 .755-.224.944-.551l2.253 1.024a3.436 3.436 0 0 1-2.763 1.394 3.434 3.434 0 0 1-3.438-3.422zm3.474.467a.47.47 0 0 1-.94 0c0-.258.211-.467.47-.467s.47.209.47.467zm-7.25 8.764a.354.354 0 0 1-.498 0 .348.348 0 0 1 0-.493l.561-.559.497.494-.559.557zm1.874 2.178a.354.354 0 0 1-.602-.247c0-.093.036-.18.103-.246l.562-.559.497.494-.56.557zm2.031-2.023-.001.001-1.03 1.027-.497-.494L31.511 21l.001-.001a.292.292 0 0 0 .052-.079c.004-.008.012-.015.015-.023.01-.024.011-.05.015-.075.002-.014.008-.028.008-.042 0-.021-.007-.041-.012-.062-.004-.019-.004-.038-.011-.056a.318.318 0 0 0-.053-.08c-.006-.007-.008-.016-.015-.022h-.001l-.001-.001-.937-.933c-.01-.01-.023-.014-.034-.022-.017-.013-.032-.025-.051-.034s-.036-.014-.055-.019a.304.304 0 0 0-.06-.012c-.019-.001-.037.001-.055.003a.254.254 0 0 0-.116.038c-.012.007-.025.009-.035.017l-1.035.772-.525-.523 1.399-1.392 2.543 2.502-.541.536zm3.978-4.093c-.009-.001-.017.002-.026.002a.302.302 0 0 0-.174.043.343.343 0 0 0-.049.036c-.007.006-.017.01-.023.017l-2.741 3.002-2.525-2.483 1.653-1.644a.311.311 0 0 0-.221-.531l-1.294.008.016-.938 1.811.016a4.052 4.052 0 0 0 3.652 1.153.27.27 0 0 0 .075.049l1.406.56.089.442.104.516-1.752-.249zm2.357.103-.182-.909.844-.63.552.733-1.214.806zm2.19-1.651-.489.458-.543-.721.485-.372a.425.425 0 0 1 .597.083.417.417 0 0 1-.05.553z" style="fill:var(--color3, #212121)"/><path fill="#212121" d="m34.601 17.484-1.25-1.244a.31.31 0 0 0-.439 0l-1.25 1.244a.315.315 0 0 0 0 .442l1.25 1.244a.307.307 0 0 0 .438 0l1.25-1.244a.312.312 0 0 0 0-.442zm-1.469 1.026-.809-.805.809-.805.809.805-.809.805zM36.679 9.625l-.15.604c.041.01 1.014.264 1.014 1.254h.622c0-1.177-.972-1.73-1.486-1.858zM38.165 12.104h-.622v.622h.622v-.622z" style="fill:var(--color3, #212121)"/></symbol><symbol id="icon-instagram" viewBox="0 0 32 32"><path d="M31.969 9.408c-.075-1.7-.35-2.869-.744-3.882a7.806 7.806 0 0 0-1.851-2.838A7.867 7.867 0 0 0 26.542.844C25.523.45 24.36.175 22.66.1 20.947.019 20.403 0 16.059 0s-4.888.019-6.595.094c-1.7.075-2.869.35-3.882.744a7.803 7.803 0 0 0-2.838 1.85A7.867 7.867 0 0 0 .9 5.52C.506 6.539.231 7.702.156 9.402c-.081 1.713-.1 2.257-.1 6.601s.019 4.888.094 6.595c.075 1.7.35 2.869.744 3.882a7.895 7.895 0 0 0 1.85 2.838 7.867 7.867 0 0 0 2.832 1.844c1.019.394 2.182.669 3.882.744 1.706.075 2.25.094 6.595.094s4.888-.019 6.595-.094c1.7-.075 2.869-.35 3.882-.744a8.184 8.184 0 0 0 4.682-4.682c.394-1.019.669-2.182.744-3.882.075-1.707.094-2.251.094-6.595s-.006-4.888-.081-6.595zm-2.882 13.065c-.069 1.563-.331 2.407-.55 2.969a5.31 5.31 0 0 1-3.038 3.038c-.563.219-1.413.481-2.969.55-1.688.075-2.194.094-6.464.094s-4.782-.019-6.464-.094c-1.563-.069-2.407-.331-2.969-.55a4.926 4.926 0 0 1-1.838-1.194 4.974 4.974 0 0 1-1.194-1.838c-.219-.563-.481-1.413-.55-2.969-.075-1.688-.094-2.194-.094-6.464s.019-4.782.094-6.464c.069-1.563.331-2.407.55-2.969a4.868 4.868 0 0 1 1.2-1.838A4.974 4.974 0 0 1 6.639 3.55c.563-.219 1.413-.481 2.969-.55 1.688-.075 2.194-.094 6.464-.094 4.276 0 4.782.019 6.464.094 1.563.069 2.407.331 2.969.55a4.914 4.914 0 0 1 1.838 1.194 4.974 4.974 0 0 1 1.194 1.838c.219.563.481 1.413.55 2.969.075 1.688.094 2.194.094 6.464s-.019 4.77-.094 6.458z"/><path d="M16.059 7.783c-4.538 0-8.22 3.682-8.22 8.22s3.682 8.22 8.22 8.22c4.539 0 8.22-3.682 8.22-8.22s-3.682-8.22-8.22-8.22zm0 13.552a5.333 5.333 0 0 1 0-10.664 5.333 5.333 0 0 1 0 10.664zM26.524 7.458a1.919 1.919 0 1 1-3.838 0 1.919 1.919 0 0 1 3.838 0z"/></symbol><symbol id="icon-linkedin" viewBox="0 0 32 32"><path d="M31.992 32v-.001H32V20.263c0-5.741-1.236-10.164-7.948-10.164-3.227 0-5.392 1.771-6.276 3.449h-.093v-2.913h-6.364v21.364h6.627V21.42c0-2.785.528-5.479 3.977-5.479 3.399 0 3.449 3.179 3.449 5.657v10.401h6.62zM.528 10.636h6.635V32H.528V10.636zM3.843 0C1.722 0 0 1.721 0 3.843s1.721 3.879 3.843 3.879c2.121 0 3.843-1.757 3.843-3.879A3.846 3.846 0 0 0 3.843 0z"/></symbol><symbol id="icon-smartphone" viewBox="0 0 20 32"><path d="M17 0H3C1.346 0 0 1.346 0 3v26c0 1.654 1.346 3 3 3h14c1.654 0 3-1.346 3-3V3c0-1.654-1.346-3-3-3zM3 2h14a1 1 0 0 1 1 1v21H2V3a1 1 0 0 1 1-1zm14 28H3a1 1 0 0 1-1-1v-3h16v3a1 1 0 0 1-1 1z"/><path d="M4.707 27.478c.391.365.391.956 0 1.321s-1.024.365-1.414 0c-.391-.365-.391-.956 0-1.321s1.024-.365 1.414 0z"/></symbol><symbol id="icon-twitter" viewBox="0 0 32 32"><path d="M32 6.078c-1.19.522-2.458.868-3.78 1.036a6.523 6.523 0 0 0 2.886-3.626 13.11 13.11 0 0 1-4.16 1.588A6.574 6.574 0 0 0 22.154 3c-3.632 0-6.556 2.948-6.556 6.562 0 .52.044 1.02.152 1.496-5.454-.266-10.28-2.88-13.522-6.862a6.605 6.605 0 0 0-.898 3.316 6.57 6.57 0 0 0 2.914 5.452 6.479 6.479 0 0 1-2.964-.808v.072c0 3.188 2.274 5.836 5.256 6.446a6.548 6.548 0 0 1-1.72.216 5.8 5.8 0 0 1-1.242-.112c.85 2.598 3.262 4.508 6.13 4.57a13.182 13.182 0 0 1-8.134 2.798c-.538 0-1.054-.024-1.57-.09A18.469 18.469 0 0 0 10.064 29c12.072 0 18.672-10 18.672-18.668 0-.29-.01-.57-.024-.848A13.087 13.087 0 0 0 32 6.078z"/></symbol><symbol id="icon-close" viewBox="0 0 32 32"><path d="m26.667 7.303-1.97-1.97-7.808 7.808-7.808-7.808-1.97 1.97 7.808 7.808-7.808 7.808 1.97 1.97 7.808-7.808 7.808 7.808 1.97-1.97-7.808-7.808 7.808-7.808z"/></symbol><symbol id="icon-email-black" viewBox="0 0 32 32"><path d="M26.667 5.333H5.334A2.663 2.663 0 0 0 2.681 8l-.013 16c0 1.467 1.2 2.667 2.667 2.667h21.333c1.467 0 2.667-1.2 2.667-2.667V8c0-1.467-1.2-2.667-2.667-2.667zM26.133 11l-9.427 5.893a1.346 1.346 0 0 1-1.413 0L5.866 11a1.132 1.132 0 1 1 1.2-1.92l8.933 5.587 8.933-5.587a1.132 1.132 0 1 1 1.2 1.92z"/></symbol><symbol id="icon-phone-black" viewBox="0 0 32 32"><path d="m24.882 19.773-3.268-.373a2.561 2.561 0 0 0-2.11.733L17.137 22.5a19.357 19.357 0 0 1-8.478-8.478l2.38-2.38a2.561 2.561 0 0 0 .733-2.11l-.373-3.242a2.575 2.575 0 0 0-2.56-2.277H6.613c-1.454 0-2.663 1.209-2.573 2.663.682 10.987 9.469 19.761 20.443 20.443 1.454.09 2.663-1.119 2.663-2.573V22.32a2.55 2.55 0 0 0-2.264-2.547z"/></symbol><symbol id="icon-person-black" viewBox="0 0 32 32"><path d="M16 16c2.947 0 5.333-2.387 5.333-5.333S18.946 5.334 16 5.334c-2.947 0-5.333 2.387-5.333 5.333S13.054 16 16 16zm0 2.667c-3.56 0-10.667 1.787-10.667 5.333v1.333c0 .733.6 1.333 1.333 1.333h18.667c.733 0 1.333-.6 1.333-1.333V24c0-3.547-7.107-5.333-10.667-5.333z"/></symbol><symbol id="icon-send" viewBox="0 0 32 32"><path d="M32 0 0 18l10.227 3.788L26 7 14.002 23.186l.01.004-.012-.004V32l5.735-6.691L27 28l5-28z"/></symbol><symbol id="icon-close_24" viewBox="0 0 32 32"><path d="M31.439 3.166 28.273 0 15.72 12.553 3.167 0 .001 3.166l12.553 12.553L.001 28.272l3.166 3.166L15.72 18.885l12.553 12.553 3.166-3.166-12.553-12.553L31.439 3.166z"/></symbol><symbol id="icon-menu_24" viewBox="0 0 48 32"><path d="M0 5.333V0h48v5.333H0zm0 13.334h48v-5.333H0v5.333zM0 32h48v-5.333H0V32z"/></symbol><symbol id="icon-close_40" viewBox="0 0 32 32"><path d="M23.733 10.304 22.229 8.8l-5.963 5.963L10.303 8.8l-1.504 1.504 5.963 5.963-5.963 5.963 1.504 1.504 5.963-5.963 5.963 5.963 1.504-1.504-5.963-5.963 5.963-5.963z"/></symbol><symbol id="icon-menu_40" viewBox="0 0 32 32"><path d="M6.4 11.733V9.6h19.2v2.133H6.4zm0 5.334h19.2v-2.133H6.4v2.133zm0 5.333h19.2v-2.133H6.4V22.4z"/></symbol></defs></svg>